<mxfile host="65bd71144e">
    <diagram id="wVh6cHktjwnzRCAw79Iv" name="Page-1">
        <mxGraphModel dx="573" dy="658" grid="1" gridSize="10" guides="1" tooltips="1" connect="1" arrows="1" fold="1" page="1" pageScale="1" pageWidth="850" pageHeight="1100" background="none" math="0" shadow="0">
            <root>
                <mxCell id="0"/>
                <mxCell id="1" parent="0"/>
                <mxCell id="6" value="" style="rounded=1;whiteSpace=wrap;html=1;arcSize=50;" parent="1" vertex="1">
                    <mxGeometry x="40" y="40" width="480" height="140" as="geometry"/>
                </mxCell>
                <mxCell id="5" value="" style="shape=image;verticalLabelPosition=bottom;labelBackgroundColor=default;verticalAlign=top;aspect=fixed;imageAspect=0;image=data:image/png,iVBORw0KGgoAAAANSUhEUgAAB9AAAAIXCAMAAADzMzXgAAADAFBMVEVMaXFqrvJonvNsy/JtzfQAc9gAc9lGqfhXnvctdN8AdNlszfUAdNlsyvUAc9gAc9ls0PMAc9kAdNkAc9lnevBsz/RmdvAAc9kAc9lszPQAc9kAc9hpmfJquPNkafAAdNls1fRt0/QAdNkAdNkAdNlquPNszPRs1/VkXvBrxfRrp/JnkPJruPNt1fUAc9hrpPNszvVlbvBmdvFkXvAAdNlkWPBlfPFmgvJrxPRs1fVpk/EAdNlqovNs0vRrsvMAdNlryfRszvRsx/Vme/FsyvRt3fVt0/VmgPFt2fVnh/JrwPRnjPEAc9lt3vVnivFrw/QtceNt2PRt3PVmcvFmcfFnf+5rxvQAdNlkW/Bt2/VqqPMAc9lrxPRs1vRsxfRqqPJt1fVmdPFt3vVrw/RrxPRonvNorvNrwPRt3PVmc/EAdNlkXfBkXPBrwvRsy/QAc9lkZvFpr/Vld/Boj/Jt4PVolPFs0fQAdNllcPFpofNpjfJnifJs0fRpmvIAc9kAc9lnkfJs0/Vs1vUAc9lrv/NlY/BsyfRs1/RrvvRt4fVokvJog/RpoPNu4fRkYvIAdNhkZPFkZ/Ft3PRt2/VmbvFolfIAdNlkZPBkZfEAc9llXe9ol/JomfJokPJme/FpqPNnfvJppfNprfNmf/FnivJoifIZdt4AdNlruPRt0fRnf/Jt1fVoj/JsyPRt1/VlXPBmbvFrsfNqpfNmcvFqqfNlYPBrvfRrv/Ru4vVmdvFnfPFsyfRszPRt2vVsx/RtzfRt1vVnevFt1PRsy/RpmPJok/Joh/Ju4PVsyvRpmvJqrfNojPJpn/NlZfFtzvRngPJolPJqq/Nt0vRkWPBtz/RpmfJu4fVu3fVsw/RmbPFoi/JpnvNne/FlafFsxfRkWfBt2PVmdPFlXvBlX/BmdfFlZPFoiPJswPRlZ/FkVfBrtvNrtPNu3vVqrPNokfJswfRkVvBsxPRqpPNqrvNt2/VrsPNmcfFpm/NpovNrsvNnefFlY/FlW/BpofNohvJplvJylq0tAAAAp3RSTlMAd9UTDJxmAQUKiRq8Ii/8KdEcsSFXd+8VOTold3Ez9l8wk0LG9kZvzNE6k2U/VVhoje93641BKYnVM6ZAw/Bz97hO3d2qpmaGgeL72pebxBB7yG2qDn5eq06qeuvillOQuul2rbhb87jNSLvututt8DPB99j9nOBby3ar9aqEf6rs9k772aP7oPFNGZj6POSHv/r0muLooUzmpe73zJvl9vT36Oz3TyFr3sYAAAAJcEhZcwAACxMAAAsTAQCanBgAACAASURBVHic7L15eBTXne9dsVrqEtolOkjIttZpWQnCMiZGsqyLJIQsMxAtGCkKiMgsRsZG4MQROCEQsQjbGLzFjhkv2WYevQzGzhvHxhkwGJhr5LxjJxdnRMZOeJnFg52XuQ4T3zjjSWbep7eqU3VOVVd1V3Wd6v5+/rjPHSNVn65W+lO/c36LIKQ4XgkxiPR/Or0wAAAAAOjhyS8ZqO8Z6mhtbhzcevbsQQW/IBhrb27tGG2oKfdXZMHvAAAAABd48v31PaPNjVvPKtEWOslbg80dQzW+kjSn3wYAAACQoogVvp7R5kGVx00KPSj1AGPNHQ3l8DoAAACQOMQKX2dH455Tp7RkHoPQw4y0rqyvQ7gOAAAA2IuYXz7UvOPQoUOHTp2yQ+hvvXXixIkTI619bTn4KAEAAAAb8OaXjzaeOhTBTqEHGVnTV+fBJwkAAABYh8ff2bxVcnlihB7gWO1oOUJ1AAAAwCKZBzfZHRD6iWPHjh0b6aipQHkbAAAAEDtiXWevvMvukNCDUh8vz8IHCQAAAMRARc3wjtdeY+s80UIPUNvgF/FBAgAAACYQ6zobXwvCj9CPHTvd0lqPQB0AAAAwRlr5wh0hm2sL/ZSu0A+ODbY3N7e2dnR0dIwGCfz/WpubG9vHtsYh9NOnT0/W9lXggwQAAACikFXfvEeyuRmhjzU2dwz1lA/UVeToV5t5svJL/L6aztHW5va3TAs9QHtDCbLkAAAAAE2yapr3PE/qPLrQDw62jvaU+/NjKxkXs0p8NUNrGrea8XnQ6SvhdAAAAIBFWn3znuefN+bzgNDHmkdrBvItylPLqitvWNN+wrDQT5+ebG/A3jsAAACgxONbGLC5MaFvbR6yp+O6WOFraB0xKPTJycnaPrSdAQAAACRKRsdCNo8q9K3NnT6ronIt0vyrO9oNCX1y8mhrOfrDAgAAAMGt9kbJ5npCP9WYyJZtHn9f60h0oU9OTraM+5EiBwAAIMXx+iNb7bpC39Hc6U98JOytqO8YiSr0ycnJ9nqMXAUAAJDCpNUMXrhwIYrQdzT3ODn2LL9+fCSa0CcnW0ZLnFsiAAAA4CQlHTsuXIgi9MahAefPqL0Vq1tb9IV+9OjR2nrnVwoAAAAkGNHXG7S5jtB3LORoIoroH2rXF/rRoyMN/KwXAAAASACe4F67ntAHRwe4G4WSU9/aoif0o0db1mDnHQAAQMqQsyS0164p9MZOXnu2pJVHnM4U+tGjR7vakPMOAAAgFajo2EPqnBJ6Y0++wDOetvEWHaEfPdpez93eAgAAAGAxdcNKm6uEPtjJt81DeHwbWrSFfvToij7kxwEAAEgxnRNCHxyqc812dVp561FNoR8+DKUDAABIXvxSYjtD6Ds63NZwLaevXVPoUDoAAIBkZYCt85DQe13Za83rH2/R8Pnhw4dHsPEOAAAg6ajT0vmFC8+PDbnh4JyNp75WS+iHD69YjbN0AAAAyUTFQk2dX+h1e4e1ipUtGkI/fBgZ7wAAAJKHfG2d70iKHuhpq9s1hH74cLvPZakBAAAAAJO0zj2vauh8rDNZeqV621o1hH74eG0yPLMAAABIccSax1599dXk3GvX2nlXCf348Q05Ti8OAAAAiAevb/DVAIxMuOG6pLu1WQ0tbKEfb2lwYxI/AAAAEKKiN6hzWuh7hpNzG9pT384U+vHjI+gHCwAAwKWkLdnzKlPoO4aSdwtarG9nCv04jtIBAAC4Em/5qojOlULfsyRZMuHYeH3tTKEfP78mud84AACAZKQkstuuEvqOoeS3mljezhL68eMtqzGHDQAAgJvwDEm77Qqhp4LOA4hElE4I/fjxWl4HvQMAAAA0A4MfvcoQ+p6FyXt2rkasX8ES+vHzK5OqVg8AAEASkzP80UcsoS90b8f2WPCsHmEJ/fyiNqdXBgAAAETHW//YRyyhD6feZnNaQwtD6OfPr0FROgAAAFeE57TQG31CKpIzzvD5+fMr6p1eGAAAAGAgPFcLfVVPymZ319UyhH7+/IbUSA4EAADg7vBcKfRHh1I5D0ysX8EQ+vkVqbllAQAAwA34Vn3EEPpwauXC0aQ1tNBCx0k6AAAATklb+BHD54PlTq+LA/LXMIR+fgXS3QEAAPDHABGeS0J/tDOVd9sJ/O200M+jJh0AAABveIZInUeE3pt6pWpaiH0ttNDPo3EcAAAArshvPEcL/bHUzW1nkdNKC/18y1Vep9cFAAAARKh/7Bwt9OHU6fNqDO+sEUroyI0DAADADZ6F585RQl+FZDiarDW00M8vKnHgMwMAAADUVNxzjhb6QnQ3ZeJbQRv98mpsuwMAAHCc8sfOUUIfHHB6VdyStpIRpKO5OwAAAIfxLAnpXCH0JahVMxmkt6McAAAAgJPkNJ6jhL4K4bk+WV200dfNStAnBgAAANDUrTpHCX0YY0ei4b2qhVb6StT4AQAAcIj6R8+phf5oJxK8DJBfSxu9C09CAAAAnMDTQeg8LPR7cBZs8ObRuXGXUb8GAADAAbJ6z6mF/iqy4YzTps6Nu3x5HUaqAgAASDQVxPF5WOjIhjNF1ga10C//sgEHFgAAABKKL1x9Tggd2XAm8a6+rBL65cvjSI0DAACQQGo+ony+BCoyTckKtdAvIzUOAABAwhCV6XABHsPxb7wl6SGhX16Ub/nnBQAAALDwDFM+R3Z7jIgr1UK/vM6PPzsAAAAOpLefO3duGKNYYqZ8nUrol3dhtwMAAID95A9Sx+doJhMPFYtUQr/8yz7LPi0AAACATYm6XO3cKmwRx0faBpXQL19eifI1AAAAtjJAdnsN0puDWx4nYoNa6ChfAwAAYCvllM+HMSrVAma1qIR+eQPuKwAAgASWn6P63Br8K1RC/2UXjA4AAMAmeuh0ONxri8hfpBL6L2sxfQ0AAIAdeIeobjIDuNOWkVWrEjqMDgAAwA68Sy6p09vrcKctxLNGJfRfLkK+IQAAAKvxLrmkEvo96FFqLeJKpc9hdAAAAJYjLrmkEnovusNZzlW/VAodMToAAABrERdeUgm9A8PVbKBtnVLov8SoFgAAABbipXy+BK3MbKFknVLov1yBgw0AAABWnp8rhY5yNbuoWKEUOnbdAQAAWOxzQujwuX3kr1AKHUYHAABgrc8loX9Ug1trd4sZQugwOgAAAEsYuqQU+kf1uLG2krNIKfRfLkLPOAAAAHHTc0kp9EfLcVNtJqtWKfRf1qJEEAAAQJzUXFIK/VG0e7WftFql0D/EpBYAAADxUX5OKXT4PCGkdSmF/uEGlP0DAACIg4FHLymE/hjatycGj8LoH3744RoU/gMAAIiZuscIn19CfO7UrvuHH3744cpEvjoAAICkImcV6fNL5x71Ob2iFDV6QOgfrnZ6RQAAAFxK1j0Kn1/6CPntCb39tUqhfzgroS8PAAAgWfD0Kn1+Dv1kEkvWIoXPP9zlT/ACAAAAJAPisNLnl+DzRJOzQiH0D9dVJHwJAAAAXE+k4WuEHqcXlILkr1AI/UO0jAMAABB7g7gQQ7iFDlCxQiH0D2s9+BgAAACYYWCf0ueYf+4MJesUQkc5OgAAAFNU3K/0+UK0NXGINqXQP2xwaiEAAABcSJayAP1SL3Z6HaNeKXQUrwEAADCMqCpYuwfDvhykQSn0XSVOLgYAAICLE9xX5Tu9oJTGO64QOlLdAQAAmJ+YGuBRDGRxFk+X0uhdmLwGAADAAHXKBPdzaPjqNGmLlEa/z+kFAQAAcGFCHBrKOE/+CqXR0dUdAACA2YS4JbhlHFCyC4lxAAAA4kmIG8Z5LRf4VIlxqDsAAACgi09VsIYCdE7oUxp9Azr9AAAA0CFf2SHufhSs8YJ3jdLofU4vCAAAAMd47lEmuA84vSCgleqO4egAAAAMH6B34l5xRP46hdFXZDm9IAAAALziO4OEOPckxuEYHQAAAJuc+xVCX4VMas5YqTT6aqfXAwAAgEvEXoXPH61wekFAhajsAYsxLQAAAFh0nlEIHR1fuU+MW4SiQgAAABR1lxRCR4c4F3SMQ1N3AAAAajz3nCGF3osOcVxylfIYvc3p9QAAAOCNjjOk0O/PcXo9gI2yvwxq1wAAACgZOKMQOg7QXXKMjto1AAAAJGmrFEJfiLvjkmP0i5ikCgAAgGD4DCl0jGThmQaF0NfhcAQAAIBE+RlS6OfqcGvcUo1+8WIX5q4BAABQbrhHhI4W7nyTQzR1v3gRm+4AAAAiLDxDCh0Va7wzSyH0dZjSAgAAIIjvDCl0zEB3Ue3axQDIdAcAAKDYcA8JHRVrLqpdCwodm+4AAACkljKS0FGx5gb8F0mhr8BcPAAAAMEe7rLQMTPVVZNUQ0K/iJ7uAAAAxEAPd1no2HB3B55FpNCP+J1eDwAAAKfpUfh82OnlAIO0kUK/uAizdAAAIMXJ30cKHTNZXJbpHhH6xT6nlwMAAICLnq9hodc4vBpgnKx1pNB3oQMsAACkNKEhaxHQUsZt7WUkoV9c4/RyAAAAOIiHzIg7sy8fH4aL8G4ghX6xzen1AAAAcI5ORYDe4+BKgHly1pFCR14cAACkLjn3kz6/B5nSLmM1KfSLq51eDgAAAKdYOEVmxJU4tg4QG2ItKXQMaQEAgFSlbooU+hKnlwNMc/cu0ujoFwcAAKmJt5cUOnq+upGVpNB33e30cgAAADhB+RQp9HpH1gDiI20FafQu3E4AAEhBPKtIoaME3Z1cRfj8yBGUrgEAQArSM0UIHRlxSZAXd+QIStcAACD1SLufFHqH08sBMVJCCv3IVbiPAACQaiyZIoT+aJbTywGxsoYU+goPbiQAAKQWOftIoXc6vRwQMzlS6dqRI0eOoLsMAACkGB1ThNBXIa5zMQ2k0NelOb0cAAAAiSRfEaCXJ/S1gU2lawGhH2nA7QUAgFRiIRmgo4l7cpSuBYWOBrAAAJBKVJwhhT7g9HJAXIiLCKEfWYm7CQAAKRegh4Te6/RqQJzMIoWOEB0AAFIvQA8Jvc7p5QBrusuEhI5TdAAASL0APSj0YadXA+KmjRQ6QnQAAEgV8s8QQr9U4fRyQPx0EUJHiA4AACkXoAeEvtDp1QAL8JNCR4gOAACpFqBPJXeA7smqqKjz+32+Nn9JRX5OlifJQ/SI0BGiAwBAKnVxDws9CQP0rBJfz2hr4+DWgwd/oWRrY/P4UI2vQhSSMkSXhI52cQAAkApk7SOEnlwBuqekfqh57KDML9i81d7amWxa75J9jo7uAACQEgzJPp9KogA9yzfUvOPsWcLm2kIPWf1E85AveTqf+0mhL0rm0wUAAADEHPQwSRKgp5V3DJ4NYdznQY7VDvmSRH5dhNCPzHJ6NQAAAOymh/D5VBIE6N6Szt6DYZubCtAltrbW5wjup40U+qLkOk8AAABAIa4ihV7i8jvkLRmKhOaxCz1AbZ/r9yq8taTR25xeDgAAAHspJ33u8i7u+SqbxyH0EydO1Na4/EB9Fin0LqdXA8zx4L0UD+IeAgD06CWF7uYxax5fq9rm8Qn9xIkTrT4371SLi0ij3+30coAp1v6dknfffXctbiEAQIc60uf3eF17r/JHtzJ0Hq/QT5wYacgSXMtVpNDvc3o1wBQQOgAg5q6vU1NT5YJLqWMF55YI/cSJlnHXnqZ7VhBC32XHAUIOhcfGay8TUggI3fUs2zs9Ppa5eYMQOEAO0VRmapU7/3zE8kYtnVsh9BMnjrX6BXfSQAj95T4bXuDP/i+S3/zmN7+5yrJr/4//+I//+I//m+RTQgoBobuaG2/58g/+WpO/0eFXBCcX3Lp0r9NvBbiHTjJA7xFciFhOJcJZLfQTJ47VujNJPGsXIXQ7Ktcg9EQJ/V2cobsH8eYFP/uZts6NC/1Xvzp58pPbbnD6/QA31qzd78Kkbq+v8dSpBAj92LHmOsGF3EcI/WUbHkogdNuA0F3LAwt+9jPrhH7y5Mnb5jn9loAr8L1CCH2J4DoGGk+dSpDQjx1rdeFZ+t2k0DdYf30I3TYgdJey7OsBnVsq9JPfXer0uwJuoJcUuut8VdF86FAChX7s9HiOi/u/vvzyyzmuE7riCD2lz9Cx5e4SpgfDc4uFfvLks+5McAKJJH+KEPqw4C6yRs8eSqzQjx1r6XPb/6x8pNAbLL88hG4bELormf6Dn9ki9JO3ue2rByScJa8QQvcJbsJbPnboUMKFfuxYu9+lzWVefvnll1dY/p0AodsGhO5G9kbic8uFfvJW93YJAQlBXEUI3V01a/nNhySfGxP6WGPraGdN+YDfX1JRUVHn9/vK+4ZGWxu3mhP6sWPjWa6sXAsI3fq0OAjdNiB0F+K97We2Cf0kztGBLr5XCKF3Cu5B7NxxyLDQf9He0eOr0M7gTyvxNbSO6Aqd9PmxYyP1XhdWrgWFbnlaHIRuGxC6C1n6MxuF/l3kugM9hgmh73NRvld+Y1jnUYU+1tpTZ6x1WZq/r3WrkQD92LHTp1vdFKRvIIS+y+qFQ+i2AaG7j73ftVPoJ29z+v0BnsnaRwjdPYPQvTWR8Fz/CH1ra32+uVBarOhrPmFE6KdH2lw3Fj0o9JdXW3xxCN02IHT3ccvPbBX6yaudfoOAY3peIYTumjlrWeHTc32hDw75Y2sqnuYbH4ku9NOnV1rXszwxaXEhoS+y+LQAQrcNCN11iD8wKPQYfX7yVqffIeCYewifuyYlzh9KbtcV+thQXTzeEtvGt0YV+un2CnelxYWE/nKJjUIPlKGjDt0qIHTX8YDNAfrJOSk1ngiYooQM0F2SEuftOXUoitAPdvjjfzjx+JqPRRH66Ra3zKbLeZkQ+kprrw2h2waE7jqetVvonzzp9FsE3LKEFHq+4AbSWpU6p4U+2GNV2ld+w4i+0E+fHhJd1C0uLHSLS9EhdNu48kGKK+17NWABC2wX+nX4nAAb7ypC6L2CG8gfPKQv9Gaflbry1LfrC/10qzvG2cwihG5xKTqEDkAY8a9tFzry3IEG/lcIobti99i/9ZCu0BdafD4sCN62Zl2hu+Qg3bOOEPp9ll4aQgcgzLyf2S70BbjZgM0SQuj73BBp1u85pCd0m2ah+Zv1hH66pc0tQ1QjQl9naXo+hA5AmBvtF/oPcLMBE8/9hNBdUITuHWLoXBZ6q+XRuURbrY7QT0+Wu6QUPSL0l2+38soQOgBhbqCFvuWGeHiWEvoc3GzAZOAVQuj8F6GLHYd0hN5o68QUr69dW+inj/YJ3COuIIS+xsorQ+gAaAt9elw3ZymEDgyykBD6/dw3SREXHtIW+liN3dnmnr4WTaFPTq7kv7X7SkLouzzuEbpyHPr/Sal56MBtQOjAKcT7CaEvETjHo+gOpxT62dFEJADktGoLfXKc+/K1EkLoL1s5JxdCByAMhA4c3nEPCZ33Ed9pva9pCr2xLkGL8I1oCn1yDe9G9y6SfW7pnjuEDkAYCB04m+MeEjrvbV89va9pCX1PZ+JOC9LGNYXOv9EbCKFbmecOoQMQBkIHDiGuIoTO+Y67p/k1LaEPJio8D9EWCtJpn09OjnN+jl5CCN3K3jIQOgBhIHTgEHWvEEIf4N/nbKF3JLp8PquVHaBPTk6Oet2z525hbxkIHYAwEDpwiCFC6PdzvV0sDmv5fKuVyV0G8a4+rSF03nPdVxJCt7CfO4QOgH1CV5Whow4daE5OjQid664y3o7XNITe6Mw8mboRDaFPNgg8U0fuuZfYIvRg1RrK1kCqohB6qCUchA4SQI5rdtw7X9MQeqtTtfNZzRpCn6wXOEZcQQjdumcPCB2AMBA6cIYaQuj7eO4qU/MaW+hne5zb4BZHNYTektgUPZPcRwi91rKrQugAhIHQgTMME0IfFvhl4BRb6DscOD4n6JtkCn1yhOep8m3knnuOVVeF0AEIA6EDR/DsI4ReI3BL/thrTKGPOR0K+1qYQp9s53hqnWcXIfRZVl0VQgcgDIQOHG0TFxS6ZcGa5aQ1vsYU+qDzgXBdC1Pok10cVwxssKNZHIQOQBgIHTjaJi4g9HsEXvG2vsYUemOW0ysTBKFihCn0oysFbrmKbBYnJrvQ025/8N7v/DTEvyn4Xwp+rOQ79z547TKjr3Htj9TcRPzr3VeuveJ7/67iDwEMvsgVfyfzboAr9H567ccK3mDx9wr+VsF/K3nAyA0Qb7pl7eNf/Z8E/1uH5yJ85Zlvfm2eYJQ//38UvPPO54l/3Hvz55/5y3ci/KsWf/nM12/eK6SY0K/+9G0L5vwkwL8o+EcFLypZcNt1Nxj+crjuh2oy5X8Ub3j4kd3/wGT3I9c9qfEij/xa4v0Q3xZi5c733nvvvf8kiXKtq6+/c/ddL4X4ZwX/pOAFgn/afefD+w3fsc/9vzJvByGSwcQnP3fnXW//luaD39515+e07hhZtPbK1FSnwHmCu1roXPhcNrpK6EedPd3XI8eOwjVOhX73F78flrlJoQf43hfnxS108fYr1C6XhR7gew/Oc7vQl93y+M9//nNS5waFHuSZB7xxC/3Gr/+5JHNdof/rv/7r6//19RsElwl9ywI1dxj9VfHmO4IuNyv0AHOu2xu30Jd9es4/6LLpYeaLbKGEvsnwA7aK6f9JCX2/oI24dHfY5aaEHuSuh7uFeIW+9+G7GC4PCT2I5otkST5/ZWrK6eNoTfynmELv5eWYOr+dKfQRfo8wyGZxfcks9Kwv/ttPY/d5gAfT4hP6l9g6J4T+hz/8IdqL8C108WtP/fzncQj9ueeeuTE+oc/7usLm0YT++uuvf9n4vgAXQo+dJxfIOjct9BdfnPNpMS6hi0s36es8qPTrGS+SuUkt9PeXxngPHn5PLfTdendMoXOTQn/hhbtYb8aE0MXrNXUeEfoHH2i8SDkhdG7bxKVJCXEKoTfy4nNByBlhCf1orccNzeK6XCF0lc8NCv3a/0HqPCah//g7N8Uh9GVf1NC5Uuh/iPIiXAt9+jNBnccj9Oeeu0WMQ+g3/9U7ZoX++l99zZsKQl92K6nzGIT+4ot3zItD6NPv+AdDsF7kOkro18R2E8TdlNC1Hw2W/YVS56aF/sIL18yLQ+jTr/ltdJ9/8MEHzBdZSAid16I1b7DjKyV0TvbbiV13Suj8HqOThWu7PMkqdO+nfve7+IX+4x/Pilnoe7XCc7XQ//B3s7gVepQHms+EwvM4hf7c14kzV3NC936W0rkBob/++ufF5Bf6XmK3PVahvzjnhpiFfrWB8DwcpNMvMo8S+vtXx3QXnnxPLXTtzfu9qvBcX+hMn7/wwl16G/q00N8mhL5fJzxXCP0D1ousIoTOa9Faz2ssoQ/y5HNBKGlhCf2ohcPMLCWNLFzzJ6vQG35njdB/fFWMQtfzuUrof/rTlZwKfa1+JPuZr/zcEqE/90xmjEK/5Z3YhP76173JLvS9iu32WIX+4os3xCh04z5nGv0RSujfiuk2fIEK0L9tjc+1hG7E6Gyh72emwjGF/sFvn1RfM1/2+StTzleAManYwxL6GG/n03UtLKGP8HMsoKTL+u6v3Al91u+sEvqPvxST0MV7/92E0P/uWi6F/pR+VtR0KT6PV+jPfTM2od/8TqxCf/2zQnILXVTH57EKfc68mIQ+fc4PjQv915uu1kqLk3z+/iYD+zgUe6kAXTMlLvOalywR+gt3TY9J6NPvetu40D/47dXaR+ivrOJzRJjY+zxD6DusmyliFb6jtM+PHh0X+KTP+kN03oR+9/etE/r3smIR+oM/MiP0P31vHo9Cv1b/f56R83MLhP7czbEI/cY/j13o/2WoIs+9Qr/uJxYJ/cU7xBiE7n3EjM9//evdmRppcbLQ398Sw224nhK6Zkrc516ySOgvXCPGIHTxmrfNCP0D9R0jjtBf4XTSWs/zDKGf4rEirI8ldF433f3WH6JzJnTvvb+zTug//mIMQp/37+aE/iftzW3nhP4N/ff9tZ9bKPSv7DUvdO8z78Qu9Nd/EGsdlCuEfvVPogjdsM9f/P2nYxD60h+aE/qvH6auSgn9EfO3wbubErpWStz+lywT+gvXxyD06982J/QPPqd5hP4KnwPCKvawAvQegUO84yyhr0jjv/urPxmFfvvvrBT6j28yL/S1PzIp9D99iTuhP67/57vsKSuF/hzZJ8ag0Nkb7kaF/votQhIL/cuWBegv/n7OXtNCXzbHrND/YTo7LY4Q+q/N38b976mFrpkSd42FQr+r27TQl91lVugfTGeOTg3A5RG62MsK0DsELhFrGUKXNt29afklfl95/erVDUH6Vq+e5fOXZInOH6L3WS303zgvdO8V1gp9rWmh3/Qj00K/lzuhR3mOufLnlgr9z6ebFbr4l/EJ/S+X2S/0v3ZI6Df8xEKh//4600Jf+kOzQv/1t9hpcYTQ36ei+Kh8mxK6Vkrcky9ZKPQXHjYt9GCAbk7on3PXEXr98wyhN/Ja3p0zwhD60Ya+lWu6akeOH5Y4TnJ+Re2aBl9For3eQAh9QxIK/TO/s1boP84xK/Qvmhf6n+7mTOhRssa8j1sr9OduMSv0B96JT+ivRz23d6/Qb7VU6HNEk0Jfttu80KnQeQsl9E1mvymXbaKErpUS9wVLhX6XaFLo4m7zQr8rk9nIndMj9LQxhtC3crmXEMR/lCH0ALLMKaEfPx+idmV5lkOH6Na0c+dL6A9aLfRPmRT6A9+LQegP8iX0K6LkFH/m5xYL/RkzQn/nnXc+//U4ff76l4VkFXrmHEuF/nuqRiqK0Pf/0LzQf72FmRZHCv19/XXQLH1PLXStlLhlL1kq9D/uNyn0/W+bF/oH5O3oJYTOZRX66PMMoQ8I/NIXu9CDUl+d48ghulZg6GKhf8dqoa81KfQHfxSD0K/gSuhfjdaQ9RYdocfi8+ee22tS6HHuuL/++l/FUgflCqGzdtzjEfp1JoX+cCxC/xYzLU4h9C+YvA/XUEJfamrHPXahP2xS6A/HIvTPsWahv/LKKxUCtN9pgwAAIABJREFUf5TsYQh9VOAYsSsuoQecXp+gA4Vaq2eicyX0tN9ZLfTvmRT62liE/neZCRK6oQBdr9VN6IUsDtCfe+4Bc0JfG++O++uvG+si70Khf9pioX/ZpNBvi0XoVPA8jxL6++Zm5V39nlromilxD1ss9DtNCv3OWIROdMOtI3zOYyN3b+/ztNC5PUBXHaPHKvTz51f0pSW6nft9SSf0z1gu9B/vNSf078Qi9D/dGFXo75oVeswB+jNRvxOsPkJ/7rmvmRL6vz4ev9BjKWx2hdCftVjoc8wJ/fe7YxH6Ji8rLU4p9Gj1YEq+RQlds0vcX1gs9N3mhP7b3bEI/S75ijWE0HsF/hh4nhb6Hv46yijxxS308+fX9SXg8WoWIfTapBP6l6wX+t3mhB7LEfqf/nQTP0J/OrqBnrJc6LeYi9D/Kn6h6z9CuFjot1ks9N97zUXoP4xF6L+mouctlNB3m8nfztxECV3zaPtOi4VOuNZQhP7HWIT+AbutzJDAHWIjQ+hcVqArWBO/0M+fr7X/uSWfEPrLackm9GvVQv/d2i+a4l5K6J8xueVu5EUooX/JCqFf+Q2TPMUSuoH876+qhf74N83x52qhf9ac0B//ulkood+SrEKnqtDn3GqGBZTQl5kTupEX2U0JndoHC6TFKYX+vplh9lveUwtdO26mqtDv+oIZdquF/kfRnNANvYiO0O8hhM5hpln587TQGzk8GVCRNWKB0M9ftmpKuSbeFYTQ63gXutrn0YR+OxWgm0z8+1K8Qjc0dNUeoZvlpv9mCD1Kizi20M02R/9KnEKP1omGYl4KC/0OU7/+rXiFbiTb8DpK6PRduo4SuuaeOYNHKKEvNS50c9Na/yJeoRvZeficttA9U4TQ+ZpdFsAzSAv9lBXisZt6K4R+/vy43ckCGwihW6FeCN2lQl/2OGPLPcpMlhAQuhYQumVCn0cJ/f0oPdgI5r2nFvqm7mQVOpkTt0rgjprnaaFzeDBA4221ROjnuzyJm89iRVYchO5SoX+DdYZuaGwJhK4FhG6Z0IVHKKFrB9lqHqaErhPeWyv0PxoW+tvWCJ3MiRsWeEMcpIU+xneGe4T8FqbQW1a017auGV/Z0NCwMsj4mq7aFec1hX5+g73nC20WZ8VB6O4U+rWspDitDjdKIHQtIHTrhL6FErp++jiBuInacd+ftEInc+I6BV5P0EmhlwvuYKVa6IcPH27T+HDFrJLyvjXtTKNbNKhcgxyLB67RQmfw/+nwHzrgDN0uoU9/iiH0x421OIfQtbiaPkNn8jc6/Irk5JwFt133ZGYKnqELmZvUQn+fmpyuwZNUgK73LOByoXOdE+dtpIXey2W7eQZpI3SAvibKr7StrKUz46wZg6aBd521veIgdDdG6N61jLK1r+omAMpA6FrMs1rovzoZYM6z05NU6GGfM4epXUcJnWoop8GdlNCXJq3QRbJPXMI6jpqsQSeF7oqMuBD1tNCPR+9An9+nDtQXeRI1cM2CXnEQuhuFfiWrDt1o5jeErsUye4R+8uTJZ/c6IPTfOyr0edSe+yZjWxXT/1MtdM0uce4XegXZJ4672LeZDtC5HB/DRmynj9BXGvk9nzJMv7w6UQPXLNjdh9BdKPR5TzOEHr1FXBgIXZMfGBK6eZ+fPDlnS6oJXXiECtG3mE6Jey9aSpzbhV7Oc5+4fEaAzu+QNRofIyfOUPMW8ap1pNBXiAnqFbfBSqFrH6HjDJ0voYtXMDrFPT3P6K9D6Jp83aYAPcB13hQT+hZK6I8YeQvibkro+5NX6J2E0JcInLGEFnqH4CK8tXTVmsFoO58I0i9f9tm4yLsJoS+K/3IQuvsi9FtYrV+jzmRxt9CVfWX+y57GMsLNNgr95LPe1BK6SKfFzTOZEvdeUOj66fHuFvpCjmenenZQQt/jpgBdENpoobcbPNdIk41++bIFkbOxCarxN3+F0F0n9JtYvdzXet0h9He4Fvre79oo9JP6o0yTTuiMtDgjd+ALlNCXJrHQyST3Ol6byshCd1WArg7RQ/1kjN7lrBWy0HfZOXltESH0+JvHQ+huE/qyxxlCN9QijiX0wEQWCJ3ec7dD6J9sSS2hM9Lioh9G7n1PLXTdlDiXC12R5M5b49dGWug8zms3fIoeEvq44d+VhW5r5doGS9PcIXS3Cf1BVoB+rYkLQOgGCtdsEfqcvSkl9JjS4q6nhB6lCbyrhZ7PceNXIiUuInT+WtmZSXQPCd1YWlwgvI+Ur12+bGueu7Vp7hB6IoT+rnVCf4A1PdXITBYJCF2HZ+0U+ifPppbQY0iL8+6mhL4/iYU+wHGSeyctdFtbrNjCarqVe73R3+2ThR6lIY1lae7xvw6EHrvQ/+SA0Pc+xRC6wRZxYSB0HboX2Cn0T6anlNAZaXHRbsD+N9VCj9Yx1tVCr+E3yd07SAm9kbtC+ah4Wiihdxn9Xb8sdMO/EwMllnZzh9DNCt17071qbkqY0IMt4tRC/28jjyEyELoeN3zXTqE/mwxCX3qHGq2jBDot7voo1/42JfSlSSD0669RE/6HJYTQewSuqHueEjpvafhGWEkJ/bjRXIV8WehWjE3RIo0Q+jovz0KnWrkbnIf+U77noRvGBqHf/PcMoZtMaoPQdXngr20U+hwxCYRuHDotbrf+DVi2SS10ncGp7hG6JsOE0O0sdo6BUUroO+zM9baLCkrohvfcc2Sht9u5RLKbe1YihG7ZbBYI3YKZLJTQrzD5JQyh6/PAd+0T+ic3pJTQGWlxT+r+/NI31UKPkhLncqGTVWt8ZZB7xyihu6xmLUwtJXSj++cliYnQhVor69YgdBdF6OIzf08L/ekbTV4FQo/CjQvsE/otqSV0Oi3uVt2fv4YS+v6ECv2PhoX+thVCV1St8TVmvOR5Sui81ckbo54SutE993rJ57Z2lhHWWFm3BqG7SOjBmSxqoRtvERcGQo/GsmdtE/qtqSV0RlqcXune1ZTPow9Rd7PQs/itWuukhD4ouJK0FpXPDx82ONF9gyz0+4QE1a31xXsxCN09Qr/xaYbQDc9kkYDQDdzq22wS+h2pJXSTaXHfooS+NKmFXsJv1VojJfROwZ1soIRurDgsq0UWuuFSt3jr1oxMg9MFQneN0DNDM1mUQn/K+KjtCBC6EabfcocdQl9gVug/mWOGF3kTOiMtTvuHMzephR6lSxxT6C/dZYZ/clLoPkLofM0lzaF33Pk64zffLU4W+oihIKhBPkK/bGsLe7+V89Zood83yyq+j6Q4K4X+2b9nCP1m89eB0A2y7OoHbo6PWymhzzEt9J/8i4J/VPCiDr/nQeiMtDjtU/Etb6qFHjUljiX0l1566Z8V/JMCZRbcC04KnSxDHxJ4op4SeqPgUiKl6LLQDxtJPctpkYW+wtYC/HwrC9FpoV9lzSoFQfgfELqFQo/MZFEI3VSLuDAQesJYqvZ56gmdTovTlvQjlND3J7fQyTJ0voq8O5Jmx10Q1lBCN9Bh1Rs+QQ8KPf6OrHp4yEJ0y4QuFalB6FxuuS97/A1a6GZmskhA6AkDQmekxWluo897Uy306Clx7hb6Qm7L0Acpocc/CMzhPHdC6AYK11YT01Pt3XFXFqLHW+sPobvkDP0bbzCE/oCQIkJXTU+1a3yq1UDorLQ4rUS3hymhL01yofcSQudKmPkX1EIfM518yw1ZlNBbor6ZuhZC6HY2flUXosf77AChu0Po177BEPqDgtuEHvA5hJ5KW+7C9F8bnNAiblILPWqXOLcL/R5eh6fWU0J3Z1cZsrfMYROH6PnSMPSA0O1+1iIHqMY7/wZCd4XQ9z7FELq5mSxMoQd8DqHbBiJ0Zlrc1cyb9eSbaqEbSIlzt9Dvl30+xVUE3EEJ3WDtNpc0UEKPMg41f5Hs8/O2jloLch8h9NvjvBaE7gahe9eyAvQYFwuhJwwInZkWdx3zZt1JCX1/kgvdw21fmUZK6FxtIJjETwld39EVRHx+/vy6HLvXR3aWiTeFDUJPgNDfjVfoV77BEHqs58gQesKA0Jnd4jaxNvb3vqkWupGUOFcLPYcQ+j0CR3j2qIXu0jZxITyH1UIf0fvxOoXPz9vaVCbIVYTQ402oh9BdIPR5TzOEbr5FXBgIPWFA6My0uDe3MO7V9ZTQlya70Ot4bRRXd0EtdDcfoYcP0UmhH9bZcJgl58MF2GD/EPjbCaHfl3xC/2nSjU+NU+jivW/QQn96XqzLgtATBoTOTIt7k5EW592tFrqhlDhXC32A10ZxNZTQ7Q9TbR+KrhC6Zu6ZGGkQF2ZRAmbGWtkqLmFCD/gcQo+JW95gCN30TBYJCD1hQOjMtLg335+ukRJHCt1QSpyrhV5OCH2JwBEdlNBtrsRORPfXw0ay4nK6lD5fl4g3fjch9HhL5CB07iP0z/w9Q+hrY/8egdATBoTOTIt7882HqVv1BUro+3kW+ttWCL2HEDpXjdh61ULfwVUOvmlyKKGPs3+wTXl8fr4l3ioyQ2RZ2PsVQudd6MuueIMWekwt4sJA6AkDQmemxb355m61ILrfVAt9tzd2ocfj8wQKvZPXzq871ELn6oTfPN4WtdCZ3kwbV+r8/OXEtO8je78uivNaEDrvQn/wDYbQr41jWRB6woDQWWlxAW8/yU6Je9NsSpyrhU62cuepzjvrglroo4K76VL5/HCLN3p4niifC8IuWei74rwUhM650B94gyH0WGaySEDoCQNCDzGdEvoXVHdqt1roBlPiXC10spX7gMAPdZTQudo/iIGVaqEfp9Lcs9Th+fmWtkQtbxERonviuxSEzrfQ0x5nCD3GFnFhIPSEAaGz0uKC5laeGe2ndtwNpsS5WujDhNDrBH6op3LieFpdLNRTQle1cxVXr1P7fF1Czs8pocfZwQdC51vogRZxlNDjWyWE7iahz7ktPjKd7uVOp8UFzX294t+/TQl9f8xCv+vO+Eic0MnZLBUCP3RSQre9WZrN+CmhK3fT/bVqnZ9vT2Bif5d101kgdK6FfvMbDKGbHaaiAkJ3ROifxCb0O+xcX8KErkiLC5pbkfO2bJNa6EZT4hhCv0awEUuFTs5myeG5am2Pu5PcBSGfEnof+a9rKJ2f70pkr1tyOovJ1itaQpfK0FGHzpHQpz/FEPoVcX7pQugJA0KP8LBa6G+SIfjSN9VCN5oSlzRCT0D/EsMMq4Xu6savATyH1UJfKf1b2kpla7hgOtzKhD7CrCGEHudoNwid4wg93CJOKfSnbxRcK/R3Yhyfqh6H7sZ56CkdoSvS4kLqJg/Jr1EL3XBKnKuFvooQepy5UJbSqBb6sOB2RtRCj4xn8axed/w4dXyeqPR2xri1OE/uIXSOhR6cyaIWeuwt4sJA6GzEmynohmbmgNBZaXEhdW+SMzuvflMtdMMpca4WOjE99RWeNrXHkq1qLVC3phJ6qCObZ/XI8eOU0BO63a4Wepyp9RA6v0K/8Wla6H97r2ih0IMBOiL0EJk/k/jrMKwhImaA0FlpcWF3y7vq11FC358SQt8n+3yfwA/i82qhc9XGLiY2qIXeHtT5ioDOVUJvWZ3wh6uV1g1Eh9C5Fbp4BSNAfzreoBFC1wJCt3HLnUyLC7tbEm/mJrXQjafEuVroU7LQ7xd47ivj9jJ0QRhXC32FrHOl0GsdqDcgB6LPiu9SELr9Qn83NqF/9g2G0ONpERcGETobCN1OoRNpcRF5Xx3+ly1vqoVuPCXO1UIndtxXCfyQQwmdpzZ2sdGgFvr5BknnpNAdCM8FQegjhB7ncDQInVeh3/QGQ+hxtYgLA6GzgdBtFbqcFheR97fC//KIWugmUuKSRej3CPxQQQmdpzZ2sbFaLXQFks9bnZkqtzqZhf7TpJuHHpPQlz3OEHo8M1kkIHQ2ELqtQpfT4iLy3hR6semEz980mxIHoSei82ucpVQcUG9E6O0J6/WqI3Stwa6cCT3ocwjdON94gyH0B6z4WCB0NhC6vUKX0uIke4dyDh+mhG4iJQ5Ctx4/JXSe2tjFRnl0obf0OVY6CKEnfYR+7RsMoT9oybIgdDYQur1Cl9LiJHs/EvrPaqGbSYlzSOhvJ/GWu9hDCd2ZjWgr8UUV+niia9UIriIidLKFXQwgQudS6HufYgg9vpksEhA6GwjdXqFLaXGSvd8PlGw8+aZa6GZS4iB0ixHLGy8kodDb9IR+/vz5DY5uQkDoSR6he4mZLJLQn9Z9L8aB0NlA6DYLPZwWR+j7YUEQvqD2uamUOAjdUjw1gwGdq4XOU6P52PDrBui1iRusxmQWIvTkFrqyRVxY6HG3iAsDobOB0G0WejgtjvD3JlHYSwXoplLikkXovQIHpHWOhXSuFrqDu9EJEHptWxyfoeVCb4jvUthy51Do85Qt4kLE3yIuDITOBkK3W+ihtDhS4E8K11NC35+KQufgDD1raEdE58k2PdVTX6spdOd1jgg9ySN05UyWME/Ps2pZELoTQv8ktYezEGlxpMC/4N2tFrq5lDgI3QadU0Ln5AzdU7J6tLW5trZ1ZY3feEa61z/eQk1P5Unndpyhy1VrKFtzXOi3MHz+hlUb7hB6dKFHfA6h25EWRwr8fbJLXEjo5lLiIHRLSOskdU4JnYeyNbG8deuJEyeOhWlprTc0cTa/of1oAKbQu/w86BxCT+4I/TMsn6+17i8PETobCN3uCD2UFqcw+Ca10IkhbMbAlnvceHqUOqeEXic4TVrfyIkgEaEHnN4QTeme+q6gzZlCP7+Gm3451tehI0LnRuieKz6mfW5JizjHhf6OJfPQ/8umeegQuu1CD6bFKRWuxHRKHIQeN97ycGa7ttAdTgIXvPVhnSuEHlC6GG2rXVPo45ycIwSA0JM4Qn/wY4bQLZjJIgGhs4HQ7Rd6IC1OX+j7zV4SEXp81AXrzvWF7nAv95zmiM5VQj92ulZLyzl9oa12TaEb2rB3bS93XiP02+82xafcL/QHPqaF/vHaG02zzIDQQwH6//ymyUsnaYQu0mfoP1gQH3MsSIq7Oj5EjpLiQmlxukLfLcQt9N1x3jGvE1nuTk1by+pg6JwSurPT1vxSeE4L/XQLa21Zq7smJ4/qC52P03O7pq3xIfQvUUL/6b8p+F8KfmyAu10m9LSnWAG6ND01wt8q+G8G2m3fv6IWepj/rYNa4ckodOG7lNAZ/I0Ov1Igy5wQ+oIoa7hNLfR/UfCPCl7U4fdhlnEl9EBanK7Ql5q+4iNqob/00j8r+CcFL+jwxyBiwoTu+Dx0seaxC0aE3iM4iC+QC6cp9NOT6mHtWfVdRycnowl9hcAR1s9D50PoN1kv9Bznhf6uGaGv/dh2oT9uudBvSQ6hL0iA0L8cZQ23JrnQp+sLfZP57sZ3ulfo+2Sh7xMcoIK1237hQi8l9CHBOXykzhlCP32aLPRKq28N2jyq0NsFjlhJCP32JBJ6juVC/5HoLqHf/LH9Qn/GcqHfnBxCvy0BQn82yhquS3KhC4/oCv3b5i/4OfcK/X5iz92qtlHG8XTuYercL4yphd4hOEbd1qhCP10f/tm08taWsM2jCr1L4Ij7CKG3uULo/8eQ0MXvWx2g6yuUO6FPfzoBQv+85UK/MTmEfksChK7/7CMIW5Jd6Ft0hb7f/AWXulfoqwihJ3x0ZwkzPO8NJLQ3qoXeLDhF1shb0YXeEqg/8/g2EDaPKvQNAkeQQvcnkdCFtVYL/UFXCV289+MECP1aq4X+FTE5hH5DAoQemC+mx/RkF7pyWqoK8ylxgjDPvUK/hxB6gpOuvTWPMnTe6Au+m2G10AcTuzhima1vGRD66fa0tvGW06cnTQh9pcARawihlyST0GdZLfQvuUroV36cCKGnfdVioX9dSA6hexfYLvRoR+iCcEeSC114+E1tzKfECYKw24zQo/vciNDftl7oiW2XnjX86qu0zgfC76VDLfQdTqWE+94yJPTTk6H/V0votSspocfZv8VaNhBC103jdpvQ075vrdC/I7pJ6Dc+nRChC9+0WOg6L+UqoQuftl3o0XbcBWFpsgt9uqUpcYIgXG9tgJ5AofcSQk9od9W6Va9SQh8rl95Jp1roTk1n8YwYFPppHaGvaKgQfFTVmk/giC5C6PnJJHThQWuFHuX1+BK654qPEyP0z1gr9Ge8ySL0Zd+1WegLoqc+LZuT5EIXHtEUegwpcYIgdN/lVqEPE0JPZHfVmkdfVQt9TydxiF9PCd2hzjL1cfu8Zdwf+Dz7KKFz0/Y1wCJC6FlJJfSs71sp9O8sc5PQP/txgoQurLVU6FECdBcJXVhqs9CNTG/7dLILXTWPJb6UuAAPu1XoCwmhJ06Z4pKAzpVCX6gIwesooTtTiO5tj0/oh7vKw48p45TQuRrxvoIQuphUQhc+ZaXQo5X0cSX0m95ImNCnf8VCoa8Vkkfo4h22Cv02Q2tYoC108z7nUOiaaXG7Y7xg5m6XCn0JIfSENWPzDFM+b1RlVmepfe5Q3VrdW/EIvbZPfkqhxqG38NQoTtgl+/zPhOQSurjWOqF/UXCR0Jc9/nHChC7cbJ3Q/3JvEgldmP7dOIQezecLjE3YufoTCwN0DoWumRa3NNYLXu1SoXcSQlf3O7OLtN5XVULf0aN+x94daqE3Ck4wGrvQR1aSe+pii1rotQJHeIgAfZElQv8NN0IX9n7HKqHf63GT0L/xcQKFHq5Ft0DoX4l+x9wkdOGG79oWoM+52uAatiS50DXS4mJLiQvg3eJOofcQQu8UEutzSejNjCysXrXQdyS+740gCO0xCn1kZZ3yU6mgktzHBY7IIoRem2xCF3K+Y43Q740eD3Ek9C99nFChi9+0RuhfiXaA7jahB4xuj9DnGD8hXprcQtdIi4stJY7RXcY1Qi8nhL5ESARpja8qhb6jhrX+DrXQX0toEn6YnLdiEfrIyjrqE6znu2rtbkLoXUkndCHrXiuEvtbA8z5HQr8lsUIXvLd81QKhP67fI04l9HcsEfp/2St04cYFtgj9jnkm1rBlTlIL/UkrU+JCbLnLhUIfIIS+UEgAYvj8XBJ6I1vUNZTQE3UioC5CNyn0kfE21sdHl6E7PeFdgZ8Q+obkE7ogfur78Qr9e1cZ+d9ZCgtdEG56PG6ff9PQobDLhC4se9Z6oX9ynTlTzvtyMgtd3GRhSlyYede4T+h1hNB7BfvxLnxVKfQhjfdaRwk9Ic8bKvpMCn1kNFiixqCWEjpXSe63E0K/LwmFLgg5X4xL6N9/0FgjRX6E7o0mdLM+jy50IfNrT8Ul9GeMhOcuFLogXH2btUL/5FYz4XkQ75Y7klfowsNWpsSF8W7Z7Tah5xBCv0ewn07C569euPCYZnMVzx610MeExDNkSujtWjYXhLTDaqFzNWtNWE0IvSEphS4IOZ+6999iFPq9nzL6+JUQob9rNkJ/I0FCF4TMa9d+JUahP/55w7fKfUIXhHm3LLBK6J/c8eloDdyZeG+4dU6yCn26lSlxEuKTf3GXq4TueSWhA9Hr9iiEPqhzLt6oFvprcTYwi4VxU0LXySbzUa3c1wi8jkOPV79XfUpNnL1kda/9GTO/nnbT7Z8yze03mfhimEf9ekxfvVrcfqUKnbr4m660GIPvRLzx2q+FfuFrxrn5ATP3ifp1I88aCvZSl7hBsJ29N9z86bhZuuWGOETlnffk0nhXoKunG8z9uHVsuV6NkZ47xu7Y9XGiewv2Uz8eT0EzMT91yvY7nzZI+vzVXr2wp4MSesLq5IlFWCX0lZTQucqJUwxbi3McOgAAAEcgp7PYfqrbofD5sG5Rbz0l9AS3lvH4hxrfskro7ZTQuWr8qpjNwlW2HgAAgBims9jtmBITPhfyKaGPJa4S3VtR07o1ZHMTQm/VvF4ONT21JeHT53WptW42CwAAAEcgm7nbPf5r+CPjPheEQbXQX0tQ6JhVPh4YsfaWaaFrt4pZTQk93mJvi1lHCJ2vRw0AAADGGEpc79eBjwihN0atAuqghD4k2I7H31n71i9+8VZMQu/TvGwrJXTtn3WCtJeta+UOAADAEWoIodsszGFC6I9FH29eTwl90N5xJmJdX/PWXwSJTeiaOwhpLZwfoedb2PkVAACAI/gS1iou61FC6AZ293MoodvY/VUs6WsNyzxmn09q7lXXUwH6Ckc602vSZmGjOAAAAI5QkrBWcTUfyUI39OjQqPb5a532ZcBJMo9d6K0mdtz5qkIXZhFCX+n0YgAAAMRCFiH0VYKd9Mo+fzTHUFc5SuiD1se1+fUdYwqZxy70eq3XyDpMCX2WwG1fGb4K5AEAABjEu09uLDNlZ36zh9hxNzbXrYQS+msDli4pp7xjkJJ5zEIf8ejluCuF3mKsMXjCWIO+MgAAkESdZaam7JxQWkLsuBvLCPOOUUK37pQ/yzfazpR5zELXboFeSwlde3fe+TJ0vtL1AAAAGGWYELqdhejlstAHDf7KKCX0PZZEtlm+ocaDmjZXCH1ra7tBoWsH3XVHKaFr7s5zUIbO2eYBAAAAgywhhN4jJCQnzmicXUcJPf6h6Dnlo40HA0QX+rHahjpR8BsUuvbR8zgldL5GpwpCFsrQAQAgmQrRp6aMnW3HRo8sdKP17t5BSuiNcZSie/PrOwaDMjcg9JFRXzhU7TAk9FrtyaktlNA5axMnlKAMHQAA3M8AIfRevoQu5bnLQo81LU4sqWkdk2QeRehbW2uIfuaedgNCb9FugN53lBK6A3PjDFetcVZQBwAAwCj5hNBX8bXlLlTQQm82/8pZA53NW8+ePXvQiNDfau6rUwXbFS1RhT7Zpvnq4ggldM4Gsyir1rRz+wAAAHCNKNWtTU1N2Xi2O0AkxRneN2+khP5anZkX9ebXjzaeDRNV6G/VDvlZrvVvjSL0SZ0kt0CXOJXQtYe4cDA8lbMKeQAAAObr1qampkzZ0hz5RNma4ZepoYVuuOIra6CzdSwi8+hCbxwa0Mzv9rfoCl1V0b1mAAAgAElEQVTP52I7LXQb73JsLCKE/hmnFwMAACDeAapTU1M2zlvzrjLZ+TWAZwcl9FMGxnV76mo6BkmXRxF6+6hPf2+iol1H6CPa++2C4DtKCb3d3hkz5vEQPsfwVAAAcC2dhNDtTHNfSMxmMZwVNkoJ/bUO3V8QK4hNdiNCH+koN9CINq1DU+jNer8uBeiE0LnrrXo34fNFTi8GAABA3PPWpuxNc/eR01NLTKXFKYR+Sut3PSX1o4072DJnC32so95AvB+irZ0p9JF63Xi7/CgldO5S4hRJ7pi1BgAArqWCEPr9Nu4Gex6Thf7qY5qzw1U0U0JnJbqn+Ws6GvecOnVKW+dqoY+11lSYerdifTvl85E+fTuzAnT+ppkhyR0AAJIrzX1qamrK0Bi0GBkihP7qhSFjgeoALfRDZC26WFE+1Dp26NChQ6dOGRb6YEe9OZmH8NaNthM2bxlvizb9LTiWRSn044b3BBJGF5LcAQAgqdLcA0K3s5t7zqOE0F99dbDeiNK9jZTPDzUGPeqp8HV2NO45FMGgzxtHjZyZa78JX99oR+ua8YbyiuizXNNGaKHzt6ftJTu53+30agAAAMSd5h4QeqdgI50KoV+4MNhpIFotp4V+qLN+aHjwlKRyw0Jv1ilNs4OVR2mh8zfMLIfw+S7rJ84DAABIcDf3gM+nhu18Ic+gUugXLlxo7GS2ciEQB2mhM9EX+tbmnmivZDkVh2mh8zY4NZDuh07uAACQHNQRQrez+asgVDymFvqFCxf2NHbUDORry7YmbqGPtdaUOBB5il1HaaHzF6ALfYTQ73N6MQAAAGLHMyUL3c7mr4H98wu00MOMNTYvHF0y1NnTU1PT09PT2Tk02jHc2zi25/l4hB44Ms93qJFLpOkrKXQOA3RF49ernF4MAACAuLPiQkL32Sy5C1pCVxAZhE53fjUh9MGOmjoHa76zWhhC5zBAV+TEcbg+AAAAJrPiQkI3PNo0Rsr3JELoY82dUZq52o53w1Fa6DzOJs0nG78mNGcQAACALVlxIaHb2SsuSMWgvULf2jzk2Ca75oZ7WOg6U9P56BNX6/RiQDLRXRVipsAxueFF5pr4nfCvVBXr/lRpDFcGwKKsuJDQ99mePZY2esEmoY9x4vIA+S0MofPXJC5QW4ecOGAPMydCFPB8g9PDiywy8Ttzw79TpftTleGfyo57jQCYwLNPFvpUhWA7db1WC/3s4MKeATu73JlF7Jqkhd7C5YZ2LfrEAXuA0CF04AC9hNBtnKAq4R3otUzoY81D9U7mvrFpmGQInbsxawE8u9AnDtgDhA6hAwdYQgjd8Kzy+CgZfSxuoTeO1tRxGfQKbUcZQq/lsgubn/D5OjtWWLx+eVNRdUF2UVNlRlW34AIK+yubsquzi9Lnz8wUkpHls438VGZRKS9C9+ZuTC/Krs5uqswotfpMDVvuINkoJ4S+KlGH0J6BjlVxCp27wDxMzsgkLfTjfJaEkaPWrO8z392fnTdBkJedwbkjxf4CYr1l6VwndMVIepmBd+VtmsjlQ+jF2yJn1gE2by8UrARCB8lGFiH0qQRmYnsrahYOxrHl3splzCt4aicZQucyI045aq3P4muLG8lv4jBPbOQkb5FJ1Wb1erOTL0k5feKJ6FLcNsGH0MXlZapPpGyalRs9EDpIytYyUwk8RCdJq6sZWtg4piX0PYEWckM9NXtYZ+i2zpKJFe8als9X8Hk4oDhCr7P22jMX0zoP5hPzu/G+UbGfEPZHhpBkpE9MFET7DPon+BB6ZhHjL2ixhQ9ZEDpIytYyU4k9RFcjZpX4feWhrq89PT319fW+gbqKLGlXvYcl9FM2N7aLiYZJltB5XKnqCH2XpUcYXpYcQ1QLnDKbvd5pQnIRcFi2/u7WzDJOhN7E/ETK9AvGzAChg6Q8RJ9K9CG6OcRmVpL7DouDSgson2QJfVzgE3IyS5eVF/ZGqnAZbBT4JFe9uRumX0gugg6r1PuJwicm+BD6fPYnMkO/pYsZIHSQdOQTQk/kIboZcnawqta2JqBu3hRtLSyhc7rhrjxCb0iQzw/wmheXzV5vAZ+PuPE6TOexqjuUGOi80Is1HrGWC5YBoYPkY5Xs84QfohulhtlXZoyv54+SsM9VQm8T+CSNPEL3W3hhjcgqmkkcZSaRSp2+fHllJN3duu1dTgg5LG+91r+L4XNr54VOPBZWT5u/Pf1A6P//kIWPhBA6SD4WEkIfFvjEO8xsFNfo8BQWBRWBgjVa6JxmuAtCm01H6DPJ8/O56Rk7q3b2Ly86wHeAHvlqn5hYHjpgLm3KM9kT1B2E3+iM3CgadVzo4gzpbyj0VOVdX2D1GQiEDpKPckLo9/NZDCYIWWPMzq8cGV32uULofLaUUTdyt/AIPZMo/porV5571wc2tecLfOINh38TE9uk/1Z1YCIvGcvWwvsQ7JPojAlehC7tmeRJhfPe5XkTBVb+7wlCB8lHFiH0Kf4SzcLU7WG2cufG6Pmyz0mhczlkLcQie6rQt8s+z1ZKoz/vCV4D9FLpEYRYYemBdCHpkLYiqlmfRVUeN0KXDm6aiP/Yr31WEAsQOkhC7iGEzmV1d5Aa9mwWToxOxOcKoXNasaaehW5dJ7tCOZWpSR1Mzeb1BF0OB0l7CKXW9iXj7Gyhic73K5W2uZ0XunSEruhVa21OA4QOkpAlhNDvEXjFu5A9PbWRh0lrJaTPJ11wgC4IV9nTyH3ahG4IyHsRurzjnqTIQqffazHRDchxoUtF6DYee0DoIAkZIIQ+xYMe2XgamUI/NOh89VpdJL9dJfQubg/QBWEDIfQ1ll01U2r4OsN4eNtdmpubW2rA/4W5ubmqNmdiaW5uoe6vFpfm5haLBoWuW6EdwVtYmltabFdBW2bUd6SNt7s707DQ1fllIlm6x9CoGLj9pXpV4N5C6XPUE3rgQrrXUQjdUFAeXJvWXSvODfyjaEbo2u9VNQ+9eGYV69J689AzA2+f346JwO149k3xX7gW2CTeyjb6VitrrmLBp/S5JPR2XivQ1X1fZ1l22UDX0BDG8t8y11dWR/Z5NzdlqL7mqjJCBL5YvbOLQj+4eJr0qFC4vCB46JuXvZH9Xd6dEU6vnzhQpL44yU5pWyHqiguXZ4fWkbc4fafym1wMLzd0ztvdX9lUXV20LfwfMzKUU1GKI/95J/EfvVXpoXc0UVa9TTXwLDf886F3nzs/vai6ukl2cndGekFwYTMKKmdnGhK6ak4L+U9qoZduLNocPl8vq57GnO9SPD87eNySVzC/W0fopduqQ6cyeYvT1+s8Z6Ub/0PKnSZdsqlf+da7Z6cXhA+B8jar/1FD6KXziyKJnWXV23J1hF5aGdrTKKPmDmkKfWal9AFPS76US8AFw1P8F64FqNvBNvqeeidX5V09eZopdI4T4gTBRx6hW7ctI3XfNlSgllspH9oGmbFdZH3hVglCaTUhovB3/Eai9chmRiCXOU3Rm2TGds015UZ+Jlpee2mRoqntZkWQm0l8i2duj7z2YvbDgpT0tV3+b7OV42GUM0znE2fKpdkqYRQ2Kd7q3O1aTy8Ka88t1WwfQN6HzH7i5ofeSq7uvT6wU0vo0sLD94Z8mlGyLfIz0fLaZyoXN5cYADQzXdWc5okMbxShZ2ao32t2KVPopUJ3sLIxzEM7jQi9qiDZh/8ADqghhL6P17mkAcpPMYV+6myncw29PGtOn2YKvcXpjQNd7iN8XmvZVeXiYQOH0bms7mzVxYwv3J3CeqX5AzvjosJNE2WUG2Y+pL54gdYxQGaesZN/8hGCzvyLCL1aEAoljc+Vm8QrXj3ijTzpvxZT90PxniLCzRCEjDJVq/l+1YPRxMQMjbEyypu2WPb+TmX7fVk1mcupi09M5Km26wuVpsrrL4zccvKnAnVnKiq1dC3fNuKJh0ak2xJmFzLtGaIoU0/omdsZ77VsNkvombmq+UPbogo9k2pOn5d0w38AB+SQh+gDAsf0MH1+6tSpVqd2t3NqT7OFfrhc4BhxhS1Fa3LDNdV+MQP6yz1ItUh/4favV//sRqmlmfy9q3rJfsb1CYEpyWY/UShRPUJQyeIRoS8mfD6RLR5gbR5LhXLSV34pNb11YiKvihb6fLlYPPCoE2Aj60ayPwHVW5DmtKh72UtCL2QsK7AyxfMT9UNlkeuRQhdZ01a0shaK5Y9vm3aMXlzNWFronbM+rIC8vdpCL6UeAUMXXE8LfW6o5T3J9ihCVz30JOesAMBb4ZpDE9cMMqQh9FOD1lVemaFu5LSG0FcLPOO3p2hNMstiM8ftmpFO5At3GhU3lRVvo7+qFZefzXxeUJSlERCOPKCVheVlK6KfEvpcLxFrbyc2j1kb3JHwr5Apkye6qd+YRro3GIyuZ/2mRnq5+j2kaxhZErpXYxDuXOLBR6S1WrSYWoaXPT1Na9e9SLOhgUwmw+cRiS5nrzuww6G+GZG/HJEt9Amyf0JY6AWMN1OlK/Rwk3wVZUlYGgmcppMQ+v0877kLYquG0M9udSAiFvsmtXzOccGauk3cIuvOK6T9TwMtWUQqxAkxQ3aYRpAV/KbM049JFQ1oZbTOyEVCaHnTMs30qJebi0eEnkc+q6wXCvMYC6xWdbLJLIj2eBN5+XRCYg8Ff5UZQ2vU/FO3dD5bjLlRW/MTASnLnQWU0OlHsCCLxajt9SeeUOx6yxTpPGERIb6CzaL2ljvRFUnBfFrorP0fUUfo5EOekUdMAGKmzjV77oKnmSn0s2fPnu1I9LZ7TldQ5yyhj/M9pctLtom7z7rrZpvJcZe/4MvK2CEUaZ+86spKyuKbi6SEZOXs8kwprswr2rhz9japmk6rO7siyl3MCtLlwHhGev/6/vQ86r1GhD4hbbJPTEwUE9rZTu+4V1L1+wXbZ6/fKOm9rFgtVvLiRcrT5oLKbdsrQ7nm8u8pidzSanLvXI6dq2mhd8sfjmKjZLP0J15M/PeygqLqUOVBeEmMR6zg/ZMzyrTOkRXPHkWF+vsqE3kHwquYEXnAkmPoMsXfTZW20OVnL+V7JR5Lwn9JoR/cXJQ9l7lZQwtdPhbZvG32ejn1LgnbCwOn8a4ihL5EcJnRI0I/O5jYwWa+0HY7S+hrOC5AD1BC7rhbeNckD2lEVAqC355PpPcHanIzq2RBFrG+0kN51bmKYLQ6UD7lnV3G+NqVYsbFM5Vbynlau7eyUQOkd2s/rISTrtaXqV9WEjrBYrIoroAOe8Nf56WRd58XStKWj5s36kXKwWeJJtWBe+bsAu3ATzrFkO5tWa78aFUmpfsTmgn8ZF729pmBcuvSDHkHPpcO0POmBW5vIRE4S2/ZK/1tFBUrz0S0SgWVmxYzlAnqAbpl6TZVeQM1akXkoXwwxN9cOTtQGd+9vojx3EdnuQfuZV728pmBxgWlG+W/NvlxghD4Q+u9gpBJJEpmawtdfugJZwRMYzyGAmB9szhuB7RoGV0S+tmzQ4k7L8gKZLdrCJ13nwsNZJs4C+/ZZlPdQIomFhOVwf2KfWSV0LPDP5ebRyeYS3FaXib1VS8VZq2PFg+qTnhVZUiCUEXlwUtfyaVMoR/IbkrPLmtS7OdLDqxW+a5JvbzMJ9RKUAg9r6AoPb0gdJsL6O3d/rlaPc8jt7SyWzovfki+8vxiaqWBmr689FLGUbAUj8rbCVXUvZSEvpPKw0un8vxVqA72VfVjxBaPnKE3czGx8oKJ6tnyU4C0nV6tI/SqibLKUkbrvNkMoR8Ir3umZHT5aZESOuVv6QFns8a7ByBm/LLPz5zhutyKYXRC6GcH/QkPz2mhc+9zxY67dW3iiG87oupphhrpS259UyYzBM6khD6jmHa8lA4vp5HnUvubGVRuF6t3V+gyquPlJmUsX6TMoQ74JvKTyyNvlfjtgkDIKAiFVYoQdpt6x32jaqs3m/KPJAlS6JUhl+zMJG86mbeg2Rov8iabWKl01aL0nsiN4KIq5pNNRE1SVC8fKRTPpYSeTWWBSb+nWbtFFAsEf3W+yO5KSFygmNiayJhG/ry4mDIoow49W9E0Zz19WCILXZK8nDKRoSX0zBlUVb30W9hzB1Yj3k8IvUNwl9FJoZ8925GIaS05rYTO1UIf593ntu24C2UMoVPakL5QVXuo0lmwpMx0eltyp85RqPyfCrQToJ4wXGU+lzw3kFKsCG1GDNFEv1Xlo4rk68i5c0TOZeGdfcn4M2lvVlFCV5Xcz4iSXaaAcBiVAXagUH7SIC2j+pzUb1ta/Gb5TU9TC51KGiDcqN1vt1uV9VZdyvp7KSAX6NVcd2SdZaybwf4d70PUp04/qhCnCelaQpfWKv9NSXcElWvAcjoIofOd5x7A06ot9LNba+wWqqeh5bS20FfynQ+nznH/Mys/7bm0mGihy1+oSmiZ0KYWpD3hufJtluLxneorEZnY0sa8ThPxXFWyd6WX/nUiWm1SfbXLb1XaVg5TpLov1SonqnfgAy5TH6LLQlclKCxmP0WwidzSbLqMrCyXiJp1wsYmlQbp437iOgUaSQMB1O3uWMwmk84mJmYQzzJNJo1YpbkDpJUpKX9wctzP2haYT+3mq4XeRI/n9UYexHCIDmwc0HLmzBl+Z35GEEe1hX72bKOtifre8pFjx7SFbuFo8YR0lbFyx10+Q5ePcBmZYhreyaSeBiShy4GZqDYFuXk5W23fmYzdU73jfXF+mUbXmMg3chmh6kgYmieq3gBVXCy9eCgYLVStpTuPEavOUP035oBwcmkTE4uJI2MhSpY7VawWPIieaUDo01Sykh4oChktAwtUZjzAWMtcvQUXN2m0qPNG1JpncNBJLrXO6EKnf2Iu491KD5BlXrbQpbWSr1QQ9dUBiBGPtOd+5swZvnvLhKg5qy30s2eb62x7YX/tsWPaQj/qaFt5g7SRO+63W3llRhIRQ+gaMbKoLXTiy5M+bab3M6V0K8K+M40l4KuajU9TvzMyJXu56g1lalbhSyf4B7ykmxd7Vb4nY82HVN/3ktDVo1HksrWJiQL1lBA16aRoyXmpoYz5KvNCl9rmKrK7slVCn8Gwl9S1QH9LbecBZvM8yaJGJ7SWxiD0Sk2hk62TvGXqS6uEXqpOt9DYlgHA6jz3M2fO7ON4SphE+Q4doZ8922rPUFV/c0DnmkJvSWzhnAV93K3McZe/o4jdV4bQ1fFrZu7sjdsr09MtE3o1lS9vJAUrhDdDUYG8U2UtMjzeqNpAyGR9batsXEWub7n6QqSr1Vl887Weh0RFedfcbbq9x9IVPiqV32u68tGCJfTCqv7l0wLJ9YqFSdsN2ZoPDsRJSSUrSz3KKNVuRbriE8WqbIqorVm6c2dv3Jae3mRG6Kr3Sgtd8TsF6q0kldB3sp7Yso13VQQg1t4yZ86cOeOGMFPwb9UT+tmzrZYnvHt9wehcW+jtPM9Xk/Css6erDLn7W6kndEX5Ue60UCMSgriFHgnp8sjkesM9b8gy6sjUOHlTlbiiOgVQR+jFZYQ3C9X1WlKoSq5XXaatKXShVHnOnFdZbFToQpV0O0V9oWf2F6k7+6mjT4XitimFPlP3/kVtf1pFbiWkq56CdM+gvTMrqR580YTenVGkvKMsoSteNVt921RCn896+3nR0zQBiLe3TEDovYIbyG/UFfrZs70+K9PjPPXtEZ1rCL3LDTsbgjDLrhx3IuaSdStOi0BHSEKm3BLNSqFTM9FIdId3hegnLjCf6kNKE+nooi10OStKlL/esw20uGWkldG6nqmeQks3YVG/1GJlukFkao2G0Kk5pMTyc5kHDcuVq2e2m58wXriVSdyicOHgdgMfaPFyVid6faFXKSfRagld8RlLj4BVbKFrtZTVTRIFIA6GCKGfcUWkKXg69IV+9uxgj1WjvvOHRmSds4W+kvtytRBdhM9XWLtmKRuN3OyOUEUZabbidNQyoUuH8bEKXSiVnzMKlGvXW7Ce0KULrJd33KXTfPbUEuNCFwqr9aaE6gk9dCJO998hHVvMbJke+QSounTFagvoc34aI5XYxEPWdmVlHONuh/BuZAxDjSJ0xfYMcT8poSt65Tepk0FVQle2IVQBoQMbKCGF3im4Am/NHn2hnz17sLUtfmd5yltJmzOF3sJ/bUCIHDJAt3iGTK7e8E4pyg3LxkuPsk6E0DW//0mI0VjFlghdOmatlHLaA8G6RUIXxH7VhBatue6U0L1FExNl0h1nCT2X/dgV+QSkj7VSJ0LXF3r0WbuKhmzVyt0grSc05rTWKELPVe+1GxN6tAhdV+i6Sf4AxDdDNSj0VS4JNoW6sfCwNR3GRv3xvB3RP771xIkTUYRe645NDVXbVwsnpyqrlVgn1euVEQnp87zN2U1y0pK9W+4aY8hUyD1m10ffco9+hi4f+RZI90EWoO6We9SkuPCt36j0bpFBoQeK1+RULYbQScfNqC5qSl9sZMt9m5ktd2MjRKWighlexf+pcYYuErF23uLspvSi6ELPnaHxXqNsuVer/3TNbLmj9yuwgx5C6Gf4HrlGkNUaVegHDx4cG/XHls3t8Y2PnAiiL/Rx7pvxRBDJtq+1VjfBkbKDGBM3+pXf8VL1eF7T7Exry9YiaivLYFBq8p30K2ukWJfsNiB0aWhZ4TTKmdKjTSXj4uuNCV0QMonBKZpzxmmhC4XEIw4tdHlu3ebluayyNXZSXKVGUlw16/4Ze96W56F2K/5+NEb1ShLNS1+faaxsTe5vv3h+aZSytWlmstylBL4mxrs3MsgIALNk7SOEPiy4BW/91uhCP3jw4NbWmgpz+hJL+ppbQjaP4vMRV1SrMYrQV1t9dXlIpLpaWhZBqMyoO5I0XRBxh3VClwImA63TtJB2STcqyta0RoMFf0h3Vz/yZvqrqSttNNLzLKrQA5PnCKVnGxU6CS10qaf8dvVQmvALiHmsS2ZrlK3F00VF2cFGnpbD/OHSMnW72OhClzoFLY88YmgLnXwjUtM36Q9Oq2zNSAIHAJYwTAh9n1XJZAkgp9mAz4OMtfb4jWWip7X1tUoyjyb0DYloH28VGwif77J84XIURfukWjGhJIOau2J9Y5l45l5IAV4oft1Md5w1KfRIkFqUR9XDr1cPb4lR6IGN9xn07Ll4hC4+QS1N3SluM+sFNyuFLikvnqLrAsWfA6sJMEFklYulVUUVujRBRf78tIVObpRLV5Yq0LQay0StmQfA2vavIaG7JS0uiNiz1ZjQDx48+ItftHd0lpdoaz2tpLyhtf2tt94ida4n9JFywUXk7CKEvsH668sHl+oBnqVK7WZTG6bWCT3DcM25xEy1S9OVF20y8IygL/SIj/KUc1kUj0HV8QqdPPLOtULodGkCJXTp1hB7x1Qbt2xz5+UBtqk2eaT+qeHOcou1N4OIf5U/i6hCX0/3ktUWOpnJJ+2wSH+U6tavMxSdAgFIAOIqQuiuSYsLkt9sXOghxhpbRztryn1t/rqKiooSv99X39cw2tq49a0IBoU+7qbwXJUSZ8NJgZz9NFf11d2knAf6ELUJWWiZ0GWdGP7+zJ5IV/zFe1Wj3aVnhMqYhS5dgj75LTDwuKAjdMXKmW3nYhZ6ZNF59CWy1S9I7EIvVwt9uelN5+KyMuXpsnQOP0O5DuZHkkmfYsyMJvT5yuuzBtEQQt/OmLa2XWs4i/ScqzWnHgBbStHDPnfDhBYFA4PmhM5CcrlxobfzPjxeLyVukR0PbXJFdLViaIZk3fB3XBmVXFRkmdBlQaoSjjTP1GeSh/kKS4WfP6QJqOrBK5mGhd6tqIquYu7vN2mvV1vohYqV67djNyt0ScTSUmaqPwHp8Ul+xW5qyKj0Q3OVy/dqfiSBjYB04k9IzNYqgJdH1AduRuj60oa8dLIhVkcT+jZqBIDUSI8hdHlwmlyTN1NL6FIGX7Xyf3OZiNiBbeSfIYTunrS4EJ6hxAu9pc81ye1hbicD9AY7XoGo2CY8I87PU4VMm9ViltRhgdCla0kdU4Js1NzSDj5M5KVHftq7UVpuNZW/TyooM32aYaHLyezEXBa1ExWd5nM3lxoR+vKJsmmy+aT67G4rI3TpQymUdrqlT0AyZUH4JYnBrAXUDylGy2YWabUFKA4+/jwxP5MejR4+SBGlTZTF8i2pOrBdmaoX2QkhqiS1hL5R/eZLpVdgCF26sjziJjLunha6VOOgTJMoLNCb/QdAfAwTQj9jz3QTG6loTqzQJ122267uEveyPYmPZJPO9KrAt3fmzOVy25PNIrN0VyR6b8Qv9JANgkaQvzGrqjW2oeVa6rzsjTMLi3MziIa0y6mzBCltWhAzNpMTrqMJXW67Q/2IbCspwVoorMwji6M0hR4c5TZ3e/gerc/THeJlVuhSfnZRSFa5UmWX/AnIZwnVhVKf1jzVKuQwNlv6NDM3PiT9PaiJbFrMaJqdW1w4cxtRDV9KlVRsnh28ilhVNDFxIHTBSDJfWeinu4kuM1pCn62amjtT7l7PEvrE9uCPlcp7UvIuvFroxMNcpfQHUzytDLNTgY34SKEvEVyHvzeBQm+2uClLIih52d6UuADdip5leZs3K/tv9qu/4cqWzywuVZRQxy90OUydmMjOyC3uLl0/bbFOzbJ2q7a5Upwrf2/npc8uLS7OnZ0+V3lIG03o5CUKtfrYTGzeXlXYXThzfnbgP83IjC70yJ5IQdO0aU3yo8h2S4ROlC3sLC2uSicG6UifgBwqT8yonL1+fuBO5xWphE7MhCsL3b/+prna9fLK8wkF0rFEJvGXNrcovSn7CeKvQHpEemJjbnHuRnKyjJbQ5X2S7PWlxVXkHwUl9OBHWZCxvp+4I/LfCi30Qvn9zJ22PvABZxSVMf4QALAOcRUh9H3uiz8F70BjgoTe7KLSc5k1NqfEqXp0MsiO7EoymqmWWSf0TNbQl8BLMFPES9Xz3mQ20oXNKgqMC106SaUDM+IJREFGdKE3mXin5uvQqzU/JsGasFgAABNMSURBVPkTYDR2zU5X3x3imUX5k8yFyAcw1MvLxxDshrzVjBRExcI169ALNH+FEjo9w03Rg5ASOms9USsVAYiPTkLoZ3oEF+L1NSZA6M1trkxmydpld0pckCpto2+Wq84for6IK60TuqKJJwnTtaXUWlSbryodK5lpWOhSoTMdlsopX0oKogpdmsyqRKNiz7TQ5X3tCP30J0BPNKmihM64Ughm675+zWcssvkOu6VqLvu2NBVFEzr1FJHXryn02drPqkyhE3kFCp6Io/kRAPrk7COE7q7KNQnR12yz0JtdltrOrlnrs+91qjRGXEyQSV7qkOVA4XwLhU6NFI2sgPlHXaih02zFt+3GaFvAUee/RL7nn6BX0U2HwsqboSV09qNLutcioZP72kG2e8uoT4DaEGmKvBB5kq/R0ZxdCFilfl3mgwpzvs9y5p5HQXdl1Nav6jE08yO5dbTQqYeYAvJzoYWu6C1PotcdEID4WEgI/YyrOqaQVHQctE3oLR0uPDsP4VlHdomzc3g7Nc4z/PVGfuepQpYDuZKYLRG6UMoahZ3XxMz9FoSdjC3UvGkq7+5kubNsuXGhl+rME8lkhnAFUYXOfKPqlccudPUJSqU30rOF3CsvVn7gBd0soSvmzEvM0JiWk7mccbfnqrc25HIE6fOYH3qWyVQtqVC6g9rDWaQytRDbpGIMhtDl5PbI9fWFrsj7lNmMynRgH3Wk0O9x5b5ykJyhrbYIfaTPhZkFEa4iA/T7bH0pbwY9c/Ohfq+2wQKpz7mWCl3I3K72R1m6duMWb79a6dl0SnwhJd0ntsl+jS70SPEbe0DMTsrM1bO9BsrWMjeqZ6dqJPPHJHRhPSHWssCZfhHj8DtzWp5SbiyhC6VUlHpguXbju24ytT346pV0ClmuanOlSfqRbvJfAg9ys6OPTyUf2WYEYudsTaELhcQfTJ6cu64p9FCdhZKCDOy4AzvpJY3umplrDDy+1oMWC/10q8+dpxCMpjIv323zq2X2B9O0pW+87H76q0uaJRISV/e0ENIX7uzwfyCqrIVt4f9EFGznRn5Mrevijdmy02dkb9Rvmirkbpd+vCx7G9v9pdsL5Ld1IDwnLowYWYd2cfHM4L9rdaQVd4YSv0N3rED5fkK/Om3aNIYCvFXTssMqmlGtbpmqYGf4IhpLKI28CHmrCtPDt2VuSKjhj0W1V5wr/dTyTPmH1OF37jbiqeWhplC5mSbizkrpdh8o2sjeXZlZKV2yYBr5qCRGHnTysoOfSKH6ryny90W8k9Km8Lt4InQL+tU/sT30HwI7BZnbw/d8bmWpxm3OUH9O6fKDbt7iSlShA5spJ4XeK7ianJ5GC4Veu9rFwXmAWQmoWVNQvH57U1F1dXZR5fwqjUAkt3/5tvk7bSzdEXNn92/cmNFfVWpsu6k4t2rn+txSPc9kzpydMX9jxuyZtiy7cH1/xvyM/p25pkO3zOLS3FKNE4U46V4/f/vyjJlRHmfFmRnLt2+M9lNCd+T+RXm+ily1dGbVzqpc3ZvdPXNnfz/jgt7cjOXb56839kKRa+2cvy36ew2vrWrj9uX9uaYe84vXz86Yn5GxM9eejwoAEnEVafQ6t9+ckqFGS4Re25cvuBxvbSJq1gAAAPBCDyl0t/V/ZZFf0xyfz1taV7tomKyxQei17k2PAAAAYAzP/YTQL7mu/yuTNN9oe4xCbx/yu61fu5Gur7OcXg0AAADb6SSFvlBIFrLaelq3mhL61tohn521XYml7UhCmsoAAADghiy5ucylS0kSoofxlJR3trYbEHp7a4OvIrmk10UKfbXTqwEAAJAAlpBCT54QXcJT4asZ6mhu3EoJfay9uWOopq0iSTbZSfxHCKGvS8I3CAAAQKf/66VkC9GVeLJyKirq/G2+Ab+/pCI/K7lCciVdpNBtGYQOAACA3/6vl5IzRE9B/EcIoa9LnswAAAAAeuRfIoSezCF6yuCtJYWOAB0AAFItRA8KPRlq0VOd248QQl/n8o53AAAATIfoQaFfcn27uJRHrCWFjgAdAABSLkQPCb0XXcVczqwjhNARoAMAQApRcYkQ+iU3D10DgTFrpNARoAMAQOqF6GGh35PM9VwpwOojhNARoAMAQEqRv48Q+qUap5cD4iBtHSl0BOgAAJCC7eIiQl+FwmUXc58iQMdHCQAAqUXWo4TQLy1xejkgZip2kUJHF3cAAEg1hkih70N3GdfSdYQQ+iJ0cQcAgFQj7X5C6Ogu41p8R0ihYw46AACkHj2k0FG65lI8i0ih16JeAQAAUg/PPYTPUbrmUvqOkEJvc3o5AAAAHKCcFPqlHieWAOIkax0p9A24nwAAkIp4e0mh34+RHu4tWQsJfdfdTi8HAACAI9QpQnSUrrmPkpdJod/n9HIAAAA4xEJS6OdKnFoGiGvKWkToaPoKAAApS9b9yItLjoy4gNDRUwYAAFKXHuTFuZgcOSPuyJEji1CyBgAAqYuydO2xHKfXA0zgjfSIC+HHzQMAgBRmQBGiDzu9HGCCWQqfr8G9AwCAlGZYYfRyp5cDYilBP3LkyDrsrgAAQGqT8ygp9FUoRncNay6SQu9zejkAAAC4yotb6PRygEHaFD5HE3cAAEh5REVe3CVfyt8Qd+BZRAr95Tqn1wMAAICzfnGr0pxeDzDCfRdJoaNHHAAAAEFYgk131+E/Qgp9BZ7CAAAACELaKmS6u4y0FRdJoeOcBAAAAF2M/lg+7grneNdcJIWOqakAAAAYQ1ou9aKHKOdcdZEUOoayAAAAYG+6d+LGcE3+OoXQZzm9HgAAANzgUwj9HIqgeEasvUgKfYPX6QUBAADgddN9EFnTHNNwkRQ6er4CAADQ3nRHwzi+K9YIoWPDHQAAgHamO6a0cEvaoouk0DFkDQAAgF57GdSu8UqwYk0SOlrKAAAAUOFR9HQ/1+vBHeK3Yk0SepvT6wEAAMAddedIoZ9b4vR6AIOSXQqho4c7AAAAmk6F0M/V4x5xR9Yihc8XYRsFAAAAjdirEPqjJbhJnCF2yT6/eOTIrrudXhAAAAAuyZJr186dO3cO1ei8sZLw+cUjR65yej0AAAC4r10LCP3cMJq6c4WP9PlFtIgDAAAQvXYtKPRzaOrOExWhFu4RFqGdHwAAgGi1ayGfn/sIg7Z57CgT5P9v7+5ZE1kXAI4vKDgggo2FRWBsFGGFKbUQVIyEQBBTCIKKJHKSxsCFxSqNEpK9bfIpFontKTbmSLbZ6hbLQlKF6ba5IAE/wEHzNjOOxkTnxfH/q85pdofH4r8zz9sJB+4DAKbz/VcZ9FvOl7ENT2OgCvq+1Q8EALC10q0y6Ldf2BhlE8WBKuh17lgDAMxUUwWdhXE2EfijCjoT6ACAeXajvwb9/5wYZwfBk4Ey6OxABwDMtRv9Nei3twXGzHL+g4Eq6NyZCgB4W/BcFfShyKBZzLU9UAW9avUDAQBWgqgK+u05G6Ss5c4PVEHPc+APAGAuO6qg3+75GTcLeeoDVdC3vfwcAIC5CIfqon8hIRaKD1RBP+DSHADAvLwVddF32Y5umY2BKuh/c3ofAGB+oQt10Tc5x8QimRP1C3rRqgcBAKyk8Lm66DsU3RLB8Ya116BzQhwA4H0i6qDf1hhAa3s+DnqeuQ8AwGJL3blL1QKh8kAVdBa4AwDeTbvUnSPjTOdX9nzw588B+wcBAO/n3tUUPcIomsr7eEDcS9BPwvwAAIAPcH1RB30oMYzW9Xzw918MPwDgQ3x76qKfswfaPK6ouueDDRP/cgCAswQ129HPS1Y/0fr2PG71EwEAVlhJsx39gmlccy9kefGVgwAAAEssOu/opnBpe97ghjUAwELEIfPo1n9v50AZAMCiCpql7uciY2owr7bnURdjDgBY1JY66MMe+9GN5dPsV6PnAIDlF31I0Q3m1/acA18BAEvhUR7rPhzZYmTNOb993HMfow0AWHrRx0EfcpuqUf5DzwEAZhT9MegU3SAxxX2pY2UuZAEALI+Q0wR9uMnGaANktD3fpucAAEPe0Z+DPtxlK9XSbWhyzvw5AMCgor/0fDj8wsvjcglVeg4AMJynpgn6cC9m/N+6RtyNO/arAQBMKroy6MMLrlNdHm/0ThP0qHeJfzwAAC8KmqAP5QKjsyT+7TtN0DnvFQBglEhPHfRer8li96UIH9xpgs59LAAA44jnmqD3Dt2M9+I+n9xpgt5gXAEABipdaILeS3Ay6aKE+DjnyqB/5csHAMBQwT1N0HsXJYZ8Ia7GnTboVQ9jCgAwlu+LJug9eYv8LCA0Wg6nDvr+8n4uAACm8O5qgt7rHXJq3KLT54qgn7AbEABgBvehNui9SsiUv9l5hK+vOX8Kejlo9UMBANaEsKMNeu9CtPqhVpIveqcNOtexAABM35D+GvReb4d12e8WK0/0PM/sBQDA9O1ryqD3djmp9H08RVXOx0FnuxoAwFyhijbovTaLud7D23h40Aa9yH4BAIAFi93VQZflHY43m1um/KAN+kHGyB8MAABdwo6257JcYYX2fNzVhxFVz7fZKgAAsIR0rg26fFZgbdwcgtGHiaCzHA4AYJXYnjbosrzL2e5v8WycPEwEvcq/hAAAlvHtTgRd3mNt3BuDln/KuSLoBwwaAMAmE+nPQZflJmvjZgiMVsNpgh71m/eTAQCgR7yYCLpc4QK2abz115y/BL3Ov4AAAJbzJyaCLsubHHimxyMqXs+fg37C5WoAADtw5yaDLrc43H2SP3//MBH0bbb6AQDs9NldHXRZTjIvrCbsp+4ng17nWwYAwFar3bVBl9vsSVcKRe/vJ4J+sGHZbwYAwCShMNFzWZYTnH32zB1/uJ8MOqvbAQB2E67oFP1si/XbY5ntcc7VQb+Lc5gMAMB2XDm9l/SKyAVin/yNe52eb8es/skAANAT2NNLenLdv7u74ql7naCzGg4AYFe+Q72in9XWeSG3IJVfcq4IepmrUgEA9uWR2npJb63vevfweG37RNAbXqsfDACAWbybOkHvdhOBtZxK99VVOX8OOq/nAAD7Eydf0rvdbje5fgeiKSfPlUE/XecpCADACr+kj4Le7W+u19Fx7qJy8vw16Nthq58MAID5lCo6Qe92z3K+NV0L9xr0uyo78wEAK8NdO9MJerd7VluPxWDC56xezu/v8+u+hw8AsGJCu3pB73bba5D0qTkvS2u5NBAAsMo8Yksv6M7/8C6IU3LOYjgAwIp/d1cFvdtvN52bdLc0Jef3+fVb5g8AcAj/oW7Q+/2znDPnkl3F8vW1/tf2z3xtBwCsrlJCN+j9fv/Qebu3vPHU9bVu0FNx1rYDAFaaILX0g97vJyRHVS50Os65TtAf6s6dYgAArA3XVls/6P1+a8spS949mfRjzXWCzuQ5AMAZfLkz/aD3++2cE5aKufaz19N6Hs0weQ4AcAp/rq8f9H6/kyis+NHmoerTt3adoG9La3vPHADAkYLJaUHvdI5rq7vm3SVFL5U5VwW9TM4BAI4TTk7p+Ugisoqv6UK4nrq8nBb08r6jFv0BAKBKum7QO512rrRiX6d98ezlmG7QyTkAwLlih1OD3ul0Ws3Yyiwgc0n568ec6wa9XOTtHADgZLHDm6lB73Q6la1VuDTdHWiMPrVPDXp2g5wDAJzOnzubHvTRdPpW7JOducTxxPn0oEfFFZs7AADgQ3y19oygj5tu12XvLimd+v79+4yg58MrM20AAMCC3JHKrKCP5tNzAdt9tvY91nxG0FN1J5yTAwDA3IRAcmbQb25u2mnJPmeguzPV7GPMpwe9XHTKSbYAAMwvmGvPDPrNr1+/ErWS9S/qnmAx//RqPiPoeabOAQBryhVJvBH0kWQhbF3UPX6pfvTz58/vs4Oeqtp11h8AABN4Yrn2W0EfR30rY/5RckIoMo75z7eCHnXWRbAAAHyAS9p9O+gjiVwkaNqGMG+m2HiO+eygH1VZCAcAwEio1tLpuTboI8fJmhgyuOreTLGe/fFDUfPpQb9uBNh0DgDAM6G02Z4n6I9V321GwkYsKHcHxXj66MejOYIe3WdZOwAAam4xfTNf0Ee+fWslm5FSaDmT14IvLMXT2Z9PLZ+r59niKpxSCwCA+byR5M3cQX9SSTYLUtj/sbALvmBgv5rOpq6urq4UNX8z6Nk4E+cAAEznktKjb+9z93zs9+/fv1uJZK5WkALhkM818/BVt9cfzIj78dN09OjHlcLcQc/G2aMGAMBbXGLu+P1BV2kdZRPJdDqXy+WaI6P/SKeTyWz26PifV8qczxn0yzxf2gEAmJMQ20osEnSF/6koav6BoKcaEqvgAAB4F38kfWyjoF9G4zF2qAEA8AFCrJC0RdCzzYD5B9UBAOAg7nBB503dxKAf1SX2pwEAsATuWCHdsiDoqWg1wKQ5AABL5PGLtcQ384Kere8HuXIFAAAjCH6xljw2OuhHjWKGF3MAAIwl+AOFXOLYiKBn03GJ93IAAMwj+EuRWjq7pKAfJU+LAVIOAIBFBF9YLDTTieMPBf1HNnkalzJLuuIFAAAsyu0LZqRCrZlOJrLHM4KeOsom06fVohSI+dlbDgCAvXmeCSMv/zfz2hYAAD7Zy79v6bf0j7WTkQAAAABJRU5ErkJggg==;" parent="1" vertex="1">
                    <mxGeometry x="50" y="50" width="448.58" height="120" as="geometry"/>
                </mxCell>
                <mxCell id="7" value="&lt;font style=&quot;font-size: 19px;&quot;&gt;&lt;b&gt;Powered By:&lt;/b&gt;&lt;/font&gt;" style="text;html=1;strokeColor=none;fillColor=none;align=left;verticalAlign=middle;whiteSpace=wrap;rounded=0;fontColor=#6bb1f3;" parent="1" vertex="1">
                    <mxGeometry x="181" y="54" width="260" height="30" as="geometry"/>
                </mxCell>
            </root>
        </mxGraphModel>
    </diagram>
</mxfile>